<svg width="887" height="678" viewBox="0 0 887 678" fill="none" xmlns="http://www.w3.org/2000/svg">
<g opacity="0.2" filter="url(#filter0_f_770_921)">
<g filter="url(#filter1_f_770_921)">
<path d="M106.972 81.918C189.96 21.9519 351.641 18.043 443.105 125.122C534.514 18.043 696.25 22.0007 779.238 81.918C865.906 144.475 869.755 269.588 783.198 394.75C724.973 484.675 576.008 575.187 451.47 635.153C446.284 637.646 439.926 637.646 434.739 635.153C310.202 575.236 161.293 484.724 103.012 394.799C16.4556 269.637 20.304 144.523 106.972 81.918ZM691.626 151.848C629.619 106.981 505.548 106.981 443.483 196.715C381.477 106.981 257.406 106.981 195.342 151.848C133.277 196.715 133.277 286.45 195.342 376.133C238.735 443.408 350.415 510.683 443.483 555.55C536.551 510.683 648.174 443.408 691.626 376.133C753.69 286.399 753.69 196.715 691.626 151.848Z" fill="#F97A9F"/>
</g>
<path d="M530.062 186.822C562.897 182.872 595.778 190.761 617.732 206.62C639.762 222.513 650.762 246.359 650.762 274.11C650.762 301.836 639.789 333.443 617.939 364.995C602.616 388.715 575.305 412.354 543.728 433.968C512.122 455.602 476.164 475.258 443.483 490.983C443.245 491.098 442.967 491.098 442.729 490.983C410.048 475.258 374.09 455.589 342.484 433.95C310.906 412.33 283.597 388.69 268.273 364.995L267.258 363.516C246.111 332.48 235.492 301.439 235.492 274.146C235.492 246.396 246.477 222.539 268.479 206.621L268.479 206.62C290.462 190.761 323.343 182.872 356.172 186.822C388.667 190.732 421.193 206.254 443.105 237.237C465.018 206.253 497.559 190.732 530.062 186.822ZM443.105 265.484C411.26 219.446 347.513 219.446 315.668 242.464C283.823 265.434 283.823 311.473 315.668 357.462C337.976 391.965 395.31 426.469 443.105 449.488C490.901 426.469 548.235 391.965 570.543 357.462C602.388 311.473 602.388 265.483 570.543 242.464C538.698 219.494 474.951 219.495 443.105 265.484Z" fill="#F97A9F"/>
<g filter="url(#filter2_f_770_921)">
<path fill-rule="evenodd" clip-rule="evenodd" d="M442.955 314.65C454.852 299.324 478.645 299.324 490.542 306.987C502.438 314.65 502.438 329.977 490.542 345.334C482.222 356.829 460.8 368.324 442.955 375.987C425.11 368.324 403.689 356.829 395.369 345.334C383.472 330.007 383.472 314.681 395.369 306.987C407.266 299.293 431.059 299.324 442.955 314.65Z" fill="#F97A9F"/>
<path d="M400.799 315.384C404.471 313.009 410.996 311.364 418.09 312.129C425.024 312.876 431.164 315.768 435.056 320.782L442.955 330.959L450.855 320.782C454.743 315.772 460.88 312.885 467.816 312.14C474.912 311.379 481.447 313.023 485.126 315.393C488.163 317.349 489.464 319.901 489.464 323.275C489.464 327.101 487.7 332.673 482.636 339.21L482.536 339.339L482.441 339.47C479.481 343.56 473.451 348.468 465.108 353.563C458.228 357.765 450.438 361.699 442.955 365.062C435.473 361.699 427.682 357.765 420.803 353.563C412.46 348.468 406.43 343.56 403.47 339.47L403.371 339.335L403.269 339.202L402.804 338.594C398.1 332.337 396.447 327.002 396.447 323.298C396.447 319.922 397.75 317.356 400.799 315.384Z" stroke="#F97A9F" stroke-width="20"/>
</g>
</g>
<defs>
<filter id="filter0_f_770_921" x="9.99976" y="10" width="866.211" height="657.023" filterUnits="userSpaceOnUse" color-interpolation-filters="sRGB">
<feFlood flood-opacity="0" result="BackgroundImageFix"/>
<feBlend mode="normal" in="SourceGraphic" in2="BackgroundImageFix" result="shape"/>
<feGaussianBlur stdDeviation="15" result="effect1_foregroundBlur_770_921"/>
</filter>
<filter id="filter1_f_770_921" x="0" y="0" width="886.21" height="677.023" filterUnits="userSpaceOnUse" color-interpolation-filters="sRGB">
<feFlood flood-opacity="0" result="BackgroundImageFix"/>
<feBlend mode="normal" in="SourceGraphic" in2="BackgroundImageFix" result="shape"/>
<feGaussianBlur stdDeviation="20" result="effect1_foregroundBlur_770_921"/>
</filter>
<filter id="filter2_f_770_921" x="376.447" y="291.94" width="133.018" height="94.0466" filterUnits="userSpaceOnUse" color-interpolation-filters="sRGB">
<feFlood flood-opacity="0" result="BackgroundImageFix"/>
<feBlend mode="normal" in="SourceGraphic" in2="BackgroundImageFix" result="shape"/>
<feGaussianBlur stdDeviation="5" result="effect1_foregroundBlur_770_921"/>
</filter>
</defs>
</svg>
