<svg width="323" height="187" viewBox="0 0 323 187" fill="none" xmlns="http://www.w3.org/2000/svg">
<path d="M255.797 148.617H297.922C300.673 148.617 302.05 148.532 302.05 148.362C302.05 148.191 301.235 147.879 299.607 147.426C296.461 146.518 291.041 146.064 283.347 146.064C274.303 146.064 266.272 146.773 259.252 148.191L257.23 139C264.812 137.468 273.377 136.702 282.926 136.702C287.025 136.702 290.816 136.872 294.299 137.213C297.781 137.496 300.449 137.894 302.303 138.404C305.111 139.199 307.274 140.504 308.79 142.319C310.307 144.078 311.065 146.007 311.065 148.106C311.065 149.809 310.559 151.426 309.548 152.957C308.537 154.432 307.021 155.653 304.999 156.617C303.032 157.525 300.673 157.979 297.922 157.979H269.446C269.164 158.262 269.025 158.489 269.025 158.66C269.025 159.057 269.67 159.511 270.962 160.021C272.984 160.759 276.438 161.128 281.325 161.128C286.435 161.128 292.109 160.702 298.343 159.851C304.633 159 310.25 157.866 315.193 156.447L318.057 165.468C311.655 167.283 304.605 168.645 296.911 169.553C291.351 170.517 286.239 171 281.578 171C276.186 171 271.748 170.376 268.266 169.128C264.783 167.879 262.285 166.262 260.768 164.277C259.307 162.291 258.69 160.191 258.915 157.979H255.797V148.617ZM255.882 102.83H298.596C300.224 102.83 301.039 102.688 301.039 102.404C301.039 102.234 300.646 102.007 299.86 101.723C298.624 101.326 296.49 101.014 293.457 100.787C290.479 100.504 287.081 100.362 283.263 100.362C273.602 100.362 265.57 101.071 259.167 102.489L256.977 93.2979C263.997 91.766 272.591 91 282.757 91C287.138 91 291.153 91.1702 294.805 91.5106C298.455 91.7943 301.151 92.1915 302.893 92.7021C305.532 93.4964 307.554 94.773 308.959 96.5319C310.362 98.2908 311.065 100.191 311.065 102.234C311.065 103.936 310.559 105.553 309.548 107.085C308.593 108.617 307.16 109.865 305.252 110.83C303.398 111.738 301.179 112.191 298.596 112.191H268.688C268.519 112.362 268.435 112.56 268.435 112.787C268.435 113.298 268.94 113.78 269.951 114.234C271.58 114.858 274.556 115.17 278.882 115.17C283.094 115.17 288.065 114.915 293.794 114.404C299.578 113.837 305.083 113.156 310.307 112.362L311.823 121.553C306.655 122.404 301.179 123.113 295.395 123.681C289.609 124.248 284.358 124.532 279.64 124.532C273.18 124.532 268.574 123.936 265.823 122.745C263.07 121.496 261.076 119.936 259.841 118.064C258.605 116.191 258.1 114.234 258.325 112.191H255.882V102.83ZM317.468 134.404H249.057V126.489H317.468V134.404Z" fill="url(#paint0_linear_535_451)"/>
<path d="M240.057 93V167H229.905V93H240.057ZM182.272 95.2064H208.585C211.969 95.2064 214.816 96.1965 217.13 98.1766C219.442 100.157 220.711 102.986 220.937 106.663C221.106 116.394 219.949 124.654 217.468 131.443C215.042 138.232 210.869 143.833 204.947 148.245C199.024 152.658 191.015 155.855 180.919 157.835L179.057 148.67C187.235 147.086 193.637 144.596 198.263 141.202C202.944 137.807 206.216 133.366 208.077 127.878C209.994 122.391 210.897 115.432 210.784 107.002C210.727 105.984 210.53 105.333 210.192 105.05C209.909 104.711 209.374 104.541 208.585 104.541H182.272V95.2064Z" fill="url(#paint1_linear_535_451)"/>
<path d="M144.011 132.118C144.011 135.852 144.206 138.454 144.598 139.925H166.929V149.259H158.366C159.43 151.238 159.961 153.502 159.961 156.047C159.961 158.989 159.206 161.648 157.695 164.024C156.24 166.457 154.001 168.379 150.978 169.794C147.956 171.264 144.206 172 139.729 172C135.252 172 131.502 171.264 128.48 169.794C125.457 168.379 123.191 166.457 121.68 164.024C120.225 161.648 119.497 158.989 119.497 156.047C119.497 153.502 120.028 151.238 121.092 149.259H112.529V139.925H134.44C134.104 138.001 133.937 135.399 133.937 132.118H144.011ZM139.729 162.666C143.367 162.666 145.969 162.072 147.537 160.884C149.104 159.753 149.887 158.141 149.887 156.047C149.887 154.011 149.104 152.456 147.537 151.38C146.025 150.249 143.423 149.683 139.729 149.683C136.035 149.683 133.405 150.249 131.838 151.38C130.327 152.456 129.571 154.011 129.571 156.047C129.571 158.141 130.354 159.753 131.922 160.884C133.489 162.072 136.092 162.666 139.729 162.666ZM164.998 93V110.48H173.057V120.663H164.998V131.354H154.924V93H164.998ZM149.887 125.584C141.213 127.451 134.245 128.385 128.983 128.385C119.973 128.385 113.593 125.924 109.843 121.002C107.716 118.174 106.653 115.034 106.653 111.583C106.653 109.038 107.24 106.464 108.416 103.861H105.057V94.5274H145.522V103.861H119.917C117.846 106.52 116.811 109.122 116.811 111.668C116.811 113.252 117.174 114.497 117.902 115.402C119.86 117.834 123.499 119.05 128.816 119.05C131.502 119.05 134.497 118.796 137.798 118.287C141.1 117.778 145.129 117.042 149.887 116.081V125.584Z" fill="url(#paint2_linear_535_451)"/>
<path d="M217.057 18V89H207.29V18H217.057ZM202.406 18.8142V84.9289H192.639V55.1284H185.313C183.252 61.6965 179.887 67.0432 175.22 71.1686C170.607 75.294 164.313 78.3066 156.337 80.2064L154.057 71.4128C160.189 69.9473 165.019 67.6674 168.546 64.5734C172.073 61.4794 174.596 57.4083 176.116 52.3601C177.635 47.3119 178.395 40.9339 178.395 33.2259C178.395 31.9232 178.34 31.0275 178.232 30.539C178.177 29.9962 178.014 29.6162 177.744 29.3991C177.473 29.182 177.011 29.0734 176.36 29.0734H156.988V20.117H176.36C179.616 20.117 182.356 21.0669 184.581 22.9667C186.86 24.8666 188.054 27.6078 188.162 31.1904C188.27 36.2929 188.026 41.0153 187.43 45.3578H192.639V18.8142H202.406Z" fill="url(#paint3_linear_535_451)"/>
<path d="M149.53 18.1974V89.1974H139.702V18.1974H149.53ZM134.787 19.0116V85.1263H124.959V55.3258H121.356V57.4428C121.356 64.6623 120.018 70.416 117.342 74.7043C114.667 78.9925 110.49 81.1366 104.811 81.1366H104.074C98.3956 81.1366 94.2186 78.9925 91.5431 74.7043C88.8676 70.416 87.5299 64.6623 87.5299 57.4428V44.0082C87.5299 36.7887 88.8676 31.035 91.5431 26.7467C94.2186 22.4585 98.3956 20.3144 104.074 20.3144H104.811C110.49 20.3144 114.667 22.4585 117.342 26.7467C120.018 31.035 121.356 36.7887 121.356 44.0082V45.5552H124.959V19.0116H134.787ZM97.3582 57.4428C97.3582 62.5453 97.9042 66.2907 98.9962 68.679C100.143 71.0132 101.836 72.1802 104.074 72.1802H104.811C107.05 72.1802 108.715 71.0132 109.807 68.679C110.954 66.2907 111.527 62.5453 111.527 57.4428V44.0082C111.527 38.9057 110.954 35.1875 109.807 32.8534C108.715 30.465 107.05 29.2708 104.811 29.2708H104.074C101.836 29.2708 100.143 30.465 98.9962 32.8534C97.9042 35.1875 97.3582 38.9057 97.3582 44.0082V57.4428Z" fill="url(#paint4_linear_535_451)"/>
<path d="M70.8948 0V89.1974H58.6363V42.0414H35.0388V29.7666H58.6363V0H70.8948ZM52.5071 70.3759C47.3994 72.5581 42.53 74.3312 37.8991 75.695C33.3362 76.9908 29.0117 77.6386 24.9255 77.6386C13.4843 77.6386 6.09519 71.7398 2.75815 59.9423C0.919385 53.3957 0 45.6216 0 36.62C0 28.164 0.851282 16.8439 2.55385 2.65956H14.8123C13.0416 16.8439 12.1563 28.0959 12.1563 36.4155C12.1563 44.5987 12.9735 51.4181 14.608 56.8736C15.5614 60.2832 16.9915 62.7382 18.8985 64.2385C20.8734 65.7388 23.2911 66.4889 26.1514 66.4889C29.216 66.4889 32.6892 65.8069 36.5711 64.4431C40.5211 63.011 45.8331 60.8289 52.5071 57.8965V70.3759Z" fill="url(#paint5_linear_535_451)"/>
<g filter="url(#filter0_f_535_451)">
<path d="M59.9809 139.405C60.1318 139.423 60.2697 139.504 60.3602 139.628C60.4637 139.77 60.493 139.953 60.4387 140.12L49.8186 172.73C49.7449 172.956 49.5336 173.109 49.2953 173.109H45.3502C45.1741 173.109 45.0082 173.025 44.9048 172.883C44.8013 172.741 44.7724 172.558 44.8269 172.39L55.455 139.781L55.4888 139.7C55.5818 139.519 55.7698 139.402 55.9783 139.401H59.9154L59.9809 139.405Z" fill="#F97A9F"/>
<path d="M21.2383 127.053C21.5168 127.084 21.7273 127.319 21.7273 127.599V127.607C21.7272 127.662 21.7183 127.716 21.7031 127.766C19.563 137.281 21.0645 145.776 25.3538 152.118C29.6476 158.467 36.7736 162.717 45.9895 163.664C46.1549 163.681 46.304 163.772 46.3946 163.911C46.4851 164.05 46.5078 164.222 46.4564 164.38L45.5006 167.307C45.4206 167.551 45.181 167.708 44.9247 167.683C34.6173 166.699 26.5602 161.97 21.7074 154.793C16.8571 147.621 15.2463 138.062 17.7091 127.483L17.7381 127.393C17.8228 127.193 18.0209 127.058 18.2447 127.058H21.082C21.1324 127.049 21.1852 127.047 21.2383 127.053Z" fill="#F97A9F"/>
<path d="M105.7 127.041C105.923 127.041 106.123 127.175 106.209 127.38C106.274 127.539 106.26 127.715 106.179 127.86C97.3333 148.926 75.0434 165.717 53.249 167.675C53.0649 167.692 52.8844 167.615 52.7692 167.47C52.6541 167.326 52.6192 167.134 52.6763 166.958L53.6326 164.032L53.6632 163.957C53.7469 163.789 53.9123 163.674 54.1027 163.656C73.8668 161.752 94.1218 146.513 102.262 127.376L102.299 127.304C102.398 127.143 102.575 127.042 102.768 127.041H105.7Z" fill="#F97A9F"/>
<path d="M92.7314 127.049C92.9186 127.05 93.0928 127.145 93.194 127.302C93.2951 127.459 93.3095 127.657 93.2316 127.827C86.8219 141.805 72.1239 152.878 57.4816 154.739C57.2949 154.762 57.1085 154.689 56.9883 154.545C56.8682 154.4 56.8307 154.204 56.8884 154.025L57.5605 151.948C57.6256 151.747 57.8007 151.601 58.0102 151.572C71.1081 149.796 84.2798 139.881 90.1428 127.366L90.1815 127.297C90.2822 127.144 90.4545 127.05 90.6414 127.049H92.7314Z" fill="#F97A9F"/>
<path d="M33.3601 127.052C33.6376 127.08 33.8543 127.314 33.8543 127.598C33.8543 127.662 33.8426 127.723 33.8226 127.78C32.7068 133.965 33.81 139.463 36.6266 143.628C39.4537 147.808 44.0382 150.693 49.9593 151.573C50.1192 151.597 50.2604 151.69 50.3456 151.827C50.4308 151.964 50.4512 152.132 50.4015 152.285L49.7294 154.363C49.6472 154.616 49.3946 154.774 49.1303 154.738C42.3685 153.805 37.0606 150.534 33.7915 145.699C30.5245 140.867 29.3262 134.522 30.6818 127.494L30.6931 127.447C30.7599 127.214 30.9751 127.05 31.2223 127.049H33.3042L33.3601 127.052Z" fill="#F97A9F"/>
<path d="M57.5729 116.191C58.897 115.292 60.6046 114.829 62.1278 115.062C63.4284 115.26 64.5881 115.97 65.2122 117.301C66.6323 115.968 68.1953 115.259 69.6242 115.06C71.2476 114.835 72.7656 115.27 73.6097 116.297C74.4667 117.339 74.4887 118.815 73.9879 120.349C73.4822 121.899 72.4119 123.627 70.8798 125.33C68.6426 127.917 64.3032 130.444 60.8942 132.109C60.7124 132.198 60.4962 132.18 60.3317 132.062C59.1469 131.213 57.8734 130.148 56.8239 128.966C55.7858 127.796 54.9293 126.471 54.6341 125.095L54.5583 124.766C53.8357 121.365 54.9758 117.953 57.5729 116.191Z" fill="#F97A9F"/>
<path d="M47.4562 120.986C47.6323 120.986 47.7981 121.071 47.9016 121.213C48.0051 121.355 48.0339 121.538 47.9795 121.705L46.6998 125.634C46.6261 125.86 46.4148 126.013 46.1765 126.013H13.5061C13.3301 126.013 13.1647 125.929 13.0612 125.787C12.9578 125.645 12.9283 125.461 12.9828 125.294L14.2625 121.365L14.2964 121.284C14.3894 121.104 14.5774 120.986 14.7858 120.986H47.4562Z" fill="#F97A9F"/>
<path d="M113.179 120.99C113.33 121.008 113.468 121.089 113.558 121.213C113.662 121.355 113.69 121.539 113.636 121.706L112.348 125.635C112.274 125.86 112.063 126.013 111.825 126.013H79.1547C78.9787 126.013 78.8134 125.929 78.7099 125.787C78.6065 125.645 78.577 125.461 78.6314 125.294L79.9112 121.365L79.9451 121.284C80.0381 121.104 80.2261 120.986 80.4345 120.986H113.113L113.179 120.99Z" fill="#F97A9F"/>
<path d="M73.2868 79.341C73.4263 79.3064 73.5777 79.3251 73.7069 79.4042C73.9237 79.537 74.0209 79.8009 73.9422 80.0422L72.9864 82.969C72.9185 83.1763 72.7334 83.3239 72.5158 83.3448C52.7517 85.2485 32.4971 100.487 24.3572 119.625C24.2708 119.827 24.0712 119.959 23.8505 119.959H20.9181C20.7342 119.959 20.5618 119.867 20.4598 119.714C20.358 119.561 20.3397 119.368 20.4104 119.198C29.2392 98.1335 51.507 81.3322 73.2868 79.341Z" fill="#F97A9F"/>
<path d="M81.1018 79.6943C81.1856 79.4377 81.4445 79.28 81.7116 79.3222C81.7317 79.3254 81.7514 79.3303 81.7707 79.3356C92.0336 80.3391 100.057 85.0605 104.895 92.2152C109.745 99.3878 111.356 108.947 108.893 119.526C108.835 119.774 108.613 119.951 108.358 119.951H105.425C105.258 119.951 105.1 119.875 104.995 119.745C104.891 119.614 104.852 119.444 104.889 119.281C107.044 109.747 105.545 101.236 101.249 94.883C96.9547 88.5337 89.8291 84.2839 80.6129 83.3368C80.4476 83.3197 80.2984 83.2286 80.2078 83.0896C80.1173 82.9507 80.0947 82.7781 80.146 82.6205L81.1018 79.6943Z" fill="#F97A9F"/>
<path d="M69.2605 92.2597C69.5261 92.2855 69.7386 92.5002 69.7559 92.7712C69.7624 92.8738 69.7395 92.9719 69.6952 93.0575L69.0499 95.0524C68.9848 95.2532 68.8098 95.3993 68.6002 95.4277C55.5021 97.204 42.3224 107.119 36.4676 119.634C36.3771 119.827 36.1827 119.951 35.969 119.951H33.8871C33.7 119.95 33.5257 119.855 33.4245 119.698C33.3234 119.541 33.3091 119.343 33.3869 119.173C39.7913 105.206 54.4709 94.1399 69.1015 92.2661C69.1096 92.2647 69.118 92.264 69.1262 92.2629C69.1297 92.2625 69.1334 92.2617 69.1369 92.2613V92.2624C69.1572 92.2601 69.178 92.257 69.1987 92.257H69.2068L69.2605 92.2597Z" fill="#F97A9F"/>
<path d="M77.4882 92.2624C84.2501 93.1951 89.5579 96.466 92.827 101.301C96.094 106.133 97.2924 112.478 95.9367 119.506C95.8867 119.764 95.6598 119.951 95.3962 119.951H93.3143C93.1513 119.95 92.9965 119.878 92.892 119.753C92.7876 119.628 92.744 119.463 92.7733 119.303C93.9139 113.084 92.813 107.556 89.9838 103.372C87.1567 99.1917 82.5723 96.3074 76.6511 95.4266C76.4913 95.4028 76.35 95.31 76.2648 95.173C76.1796 95.036 76.1593 94.8681 76.2089 94.7146L76.881 92.6371L76.9149 92.5556C77.0077 92.3746 77.1957 92.2572 77.4043 92.257H77.4129L77.4882 92.2624Z" fill="#F97A9F"/>
<path d="M81.3269 73.8944C81.4778 73.9125 81.6157 73.9926 81.7062 74.1169C81.8097 74.259 81.839 74.4425 81.7846 74.6096L71.1646 107.211C71.0909 107.437 70.8795 107.59 70.6413 107.59H66.6962C66.52 107.59 66.3543 107.506 66.2508 107.364C66.1473 107.222 66.1184 107.039 66.1729 106.872L76.801 74.2697L76.8348 74.1887C76.9279 74.008 77.1158 73.8906 77.3243 73.8906H81.2613L81.3269 73.8944Z" fill="#F97A9F"/>
</g>
<g filter="url(#filter1_f_535_451)">
<path d="M59.9809 139.405C60.1318 139.423 60.2697 139.504 60.3602 139.628C60.4637 139.77 60.493 139.953 60.4387 140.12L49.8186 172.73C49.7449 172.956 49.5336 173.109 49.2953 173.109H45.3502C45.1741 173.109 45.0082 173.025 44.9048 172.883C44.8013 172.741 44.7724 172.558 44.8269 172.39L55.455 139.781L55.4888 139.7C55.5818 139.519 55.7698 139.402 55.9783 139.401H59.9154L59.9809 139.405Z" fill="#F97A9F"/>
<path d="M21.2383 127.053C21.5168 127.084 21.7273 127.319 21.7273 127.599V127.607C21.7272 127.662 21.7183 127.716 21.7031 127.766C19.563 137.281 21.0645 145.776 25.3538 152.118C29.6476 158.467 36.7736 162.717 45.9895 163.664C46.1549 163.681 46.304 163.772 46.3946 163.911C46.4851 164.05 46.5078 164.222 46.4564 164.38L45.5006 167.307C45.4206 167.551 45.181 167.708 44.9247 167.683C34.6173 166.699 26.5602 161.97 21.7074 154.793C16.8571 147.621 15.2463 138.062 17.7091 127.483L17.7381 127.393C17.8228 127.193 18.0209 127.058 18.2447 127.058H21.082C21.1324 127.049 21.1852 127.047 21.2383 127.053Z" fill="#F97A9F"/>
<path d="M105.7 127.041C105.923 127.041 106.123 127.175 106.209 127.38C106.274 127.539 106.26 127.715 106.179 127.86C97.3333 148.926 75.0434 165.717 53.249 167.675C53.0649 167.692 52.8844 167.615 52.7692 167.47C52.6541 167.326 52.6192 167.134 52.6763 166.958L53.6326 164.032L53.6632 163.957C53.7469 163.789 53.9123 163.674 54.1027 163.656C73.8668 161.752 94.1218 146.513 102.262 127.376L102.299 127.304C102.398 127.143 102.575 127.042 102.768 127.041H105.7Z" fill="#F97A9F"/>
<path d="M92.7314 127.049C92.9186 127.05 93.0928 127.145 93.194 127.302C93.2951 127.459 93.3095 127.657 93.2316 127.827C86.8219 141.805 72.1239 152.878 57.4816 154.739C57.2949 154.762 57.1085 154.689 56.9883 154.545C56.8682 154.4 56.8307 154.204 56.8884 154.025L57.5605 151.948C57.6256 151.747 57.8007 151.601 58.0102 151.572C71.1081 149.796 84.2798 139.881 90.1428 127.366L90.1815 127.297C90.2822 127.144 90.4545 127.05 90.6414 127.049H92.7314Z" fill="#F97A9F"/>
<path d="M33.3601 127.052C33.6376 127.08 33.8543 127.314 33.8543 127.598C33.8543 127.662 33.8426 127.723 33.8226 127.78C32.7068 133.965 33.81 139.463 36.6266 143.628C39.4537 147.808 44.0382 150.693 49.9593 151.573C50.1192 151.597 50.2604 151.69 50.3456 151.827C50.4308 151.964 50.4512 152.132 50.4015 152.285L49.7294 154.363C49.6472 154.616 49.3946 154.774 49.1303 154.738C42.3685 153.805 37.0606 150.534 33.7915 145.699C30.5245 140.867 29.3262 134.522 30.6818 127.494L30.6931 127.447C30.7599 127.214 30.9751 127.05 31.2223 127.049H33.3042L33.3601 127.052Z" fill="#F97A9F"/>
<path d="M57.5729 116.191C58.897 115.292 60.6046 114.829 62.1278 115.062C63.4284 115.26 64.5881 115.97 65.2122 117.301C66.6323 115.968 68.1953 115.259 69.6242 115.06C71.2476 114.835 72.7656 115.27 73.6097 116.297C74.4667 117.339 74.4887 118.815 73.9879 120.349C73.4822 121.899 72.4119 123.627 70.8798 125.33C68.6426 127.917 64.3032 130.444 60.8942 132.109C60.7124 132.198 60.4962 132.18 60.3317 132.062C59.1469 131.213 57.8734 130.148 56.8239 128.966C55.7858 127.796 54.9293 126.471 54.6341 125.095L54.5583 124.766C53.8357 121.365 54.9758 117.953 57.5729 116.191Z" fill="#F97A9F"/>
<path d="M47.4562 120.986C47.6323 120.986 47.7981 121.071 47.9016 121.213C48.0051 121.355 48.0339 121.538 47.9795 121.705L46.6998 125.634C46.6261 125.86 46.4148 126.013 46.1765 126.013H13.5061C13.3301 126.013 13.1647 125.929 13.0612 125.787C12.9578 125.645 12.9283 125.461 12.9828 125.294L14.2625 121.365L14.2964 121.284C14.3894 121.104 14.5774 120.986 14.7858 120.986H47.4562Z" fill="#F97A9F"/>
<path d="M113.179 120.99C113.33 121.008 113.468 121.089 113.558 121.213C113.662 121.355 113.69 121.539 113.636 121.706L112.348 125.635C112.274 125.86 112.063 126.013 111.825 126.013H79.1547C78.9787 126.013 78.8134 125.929 78.7099 125.787C78.6065 125.645 78.577 125.461 78.6314 125.294L79.9112 121.365L79.9451 121.284C80.0381 121.104 80.2261 120.986 80.4345 120.986H113.113L113.179 120.99Z" fill="#F97A9F"/>
<path d="M73.2868 79.341C73.4263 79.3064 73.5777 79.3251 73.7069 79.4042C73.9237 79.537 74.0209 79.8009 73.9422 80.0422L72.9864 82.969C72.9185 83.1763 72.7334 83.3239 72.5158 83.3448C52.7517 85.2485 32.4971 100.487 24.3572 119.625C24.2708 119.827 24.0712 119.959 23.8505 119.959H20.9181C20.7342 119.959 20.5618 119.867 20.4598 119.714C20.358 119.561 20.3397 119.368 20.4104 119.198C29.2392 98.1335 51.507 81.3322 73.2868 79.341Z" fill="#F97A9F"/>
<path d="M81.1018 79.6943C81.1856 79.4377 81.4445 79.28 81.7116 79.3222C81.7317 79.3254 81.7514 79.3303 81.7707 79.3356C92.0336 80.3391 100.057 85.0605 104.895 92.2152C109.745 99.3878 111.356 108.947 108.893 119.526C108.835 119.774 108.613 119.951 108.358 119.951H105.425C105.258 119.951 105.1 119.875 104.995 119.745C104.891 119.614 104.852 119.444 104.889 119.281C107.044 109.747 105.545 101.236 101.249 94.883C96.9547 88.5337 89.8291 84.2839 80.6129 83.3368C80.4476 83.3197 80.2984 83.2286 80.2078 83.0896C80.1173 82.9507 80.0947 82.7781 80.146 82.6205L81.1018 79.6943Z" fill="#F97A9F"/>
<path d="M69.2605 92.2597C69.5261 92.2855 69.7386 92.5002 69.7559 92.7712C69.7624 92.8738 69.7395 92.9719 69.6952 93.0575L69.0499 95.0524C68.9848 95.2532 68.8098 95.3993 68.6002 95.4277C55.5021 97.204 42.3224 107.119 36.4676 119.634C36.3771 119.827 36.1827 119.951 35.969 119.951H33.8871C33.7 119.95 33.5257 119.855 33.4245 119.698C33.3234 119.541 33.3091 119.343 33.3869 119.173C39.7913 105.206 54.4709 94.1399 69.1015 92.2661C69.1096 92.2647 69.118 92.264 69.1262 92.2629C69.1297 92.2625 69.1334 92.2617 69.1369 92.2613V92.2624C69.1572 92.2601 69.178 92.257 69.1987 92.257H69.2068L69.2605 92.2597Z" fill="#F97A9F"/>
<path d="M77.4882 92.2624C84.2501 93.1951 89.5579 96.466 92.827 101.301C96.094 106.133 97.2924 112.478 95.9367 119.506C95.8867 119.764 95.6598 119.951 95.3962 119.951H93.3143C93.1513 119.95 92.9965 119.878 92.892 119.753C92.7876 119.628 92.744 119.463 92.7733 119.303C93.9139 113.084 92.813 107.556 89.9838 103.372C87.1567 99.1917 82.5723 96.3074 76.6511 95.4266C76.4913 95.4028 76.35 95.31 76.2648 95.173C76.1796 95.036 76.1593 94.8681 76.2089 94.7146L76.881 92.6371L76.9149 92.5556C77.0077 92.3746 77.1957 92.2572 77.4043 92.257H77.4129L77.4882 92.2624Z" fill="#F97A9F"/>
<path d="M81.3269 73.8944C81.4778 73.9125 81.6157 73.9926 81.7062 74.1169C81.8097 74.259 81.839 74.4425 81.7846 74.6096L71.1646 107.211C71.0909 107.437 70.8795 107.59 70.6413 107.59H66.6962C66.52 107.59 66.3543 107.506 66.2508 107.364C66.1473 107.222 66.1184 107.039 66.1729 106.872L76.801 74.2697L76.8348 74.1887C76.9279 74.008 77.1158 73.8906 77.3243 73.8906H81.2613L81.3269 73.8944Z" fill="#F97A9F"/>
</g>
<path d="M60.0132 139.083C60.2878 139.116 60.539 139.262 60.7036 139.488C60.8916 139.747 60.944 140.08 60.8452 140.385L50.2212 173.076C50.0873 173.488 49.7032 173.767 49.2701 173.768H45.3238C45.0037 173.768 44.7023 173.614 44.5142 173.355C44.3261 173.096 44.2736 172.762 44.3726 172.458L55.0054 139.767L55.0669 139.619C55.2361 139.29 55.5776 139.076 55.9566 139.076H59.8951L60.0132 139.083ZM21.2525 126.699C21.7585 126.756 22.141 127.184 22.1411 127.693V127.701C22.1411 127.784 22.129 127.865 22.1099 127.942C19.9858 137.388 21.4786 145.779 25.6919 152.022C29.9051 158.265 36.9076 162.464 46.0093 163.401C46.3099 163.432 46.5809 163.598 46.7456 163.852C46.91 164.105 46.9515 164.419 46.8579 164.706L45.9019 167.64C45.7567 168.085 45.3218 168.369 44.856 168.325C34.426 167.328 26.2374 162.525 21.2993 155.208C16.366 147.897 14.7469 138.182 17.2339 127.476L17.2867 127.312C17.4407 126.947 17.8005 126.701 18.2076 126.701H21.0269C21.1004 126.693 21.1761 126.691 21.2525 126.699ZM105.698 126.686C106.102 126.686 106.467 126.929 106.622 127.303C106.738 127.584 106.717 127.897 106.579 128.156C97.6617 149.406 75.2353 166.34 53.2661 168.317C52.9316 168.348 52.6036 168.208 52.3941 167.945C52.1847 167.682 52.1211 167.331 52.2251 167.012L53.1822 164.078L53.2378 163.941C53.3901 163.636 53.6904 163.426 54.0367 163.393C73.6349 161.501 93.7606 146.337 101.843 127.295L101.912 127.162C102.092 126.869 102.413 126.686 102.764 126.686H105.698ZM33.273 126.692C33.8249 126.693 34.2727 127.14 34.273 127.692C34.273 127.794 34.2573 127.893 34.229 127.985C33.1396 134.075 34.2322 139.453 36.9702 143.511C39.7216 147.587 44.1909 150.417 50.0015 151.283C50.2919 151.327 50.5489 151.496 50.7036 151.745C50.8583 151.995 50.8953 152.3 50.8052 152.579L50.1324 154.662C49.9833 155.123 49.5247 155.412 49.0445 155.346C42.1656 154.395 36.7368 151.053 33.3882 146.09C30.0435 141.133 28.8334 134.647 30.2085 127.504L30.229 127.417C30.3508 126.992 30.7408 126.693 31.19 126.692H33.273ZM92.7232 126.692C93.0635 126.692 93.3811 126.866 93.565 127.152C93.7488 127.439 93.7746 127.799 93.6333 128.108C87.1601 142.255 72.3275 153.461 57.5171 155.347C57.1777 155.39 56.8391 155.257 56.6206 154.993C56.4023 154.73 56.334 154.373 56.439 154.048L57.1118 151.965L57.1646 151.832C57.3098 151.536 57.595 151.327 57.9283 151.281C70.8716 149.522 83.9229 139.685 89.7271 127.27L89.7974 127.144C89.9804 126.865 90.2929 126.693 90.6324 126.692H92.7232ZM57.2984 115.885C58.7021 114.931 60.523 114.427 62.1753 114.68C63.4344 114.872 64.5836 115.511 65.315 116.662C66.6822 115.509 68.1614 114.87 69.5454 114.678C71.2687 114.438 72.9673 114.889 73.9419 116.077C74.9404 117.294 74.922 118.961 74.3999 120.564C73.8689 122.195 72.758 123.981 71.1978 125.719C68.8926 128.386 64.4801 130.95 61.0708 132.618C60.7402 132.78 60.3474 132.747 60.0484 132.532C58.8449 131.668 57.5435 130.578 56.4654 129.361C55.4071 128.167 54.4957 126.774 54.1743 125.291L54.0952 124.947C53.3421 121.393 54.521 117.773 57.2984 115.885ZM47.4312 120.615C47.751 120.615 48.0517 120.769 48.2398 121.027C48.4278 121.286 48.4813 121.62 48.3824 121.925L47.1011 125.863C46.9671 126.275 46.5836 126.553 46.1509 126.554H13.4673C13.1474 126.554 12.8469 126.4 12.6587 126.142C12.4706 125.883 12.4172 125.549 12.5161 125.244L13.7964 121.306L13.8579 121.158C14.027 120.829 14.3685 120.615 14.7476 120.615H47.4312ZM113.113 120.615C113.433 120.615 113.734 120.769 113.922 121.028C114.11 121.288 114.163 121.621 114.063 121.926L112.775 125.864C112.64 126.275 112.257 126.554 111.825 126.554H79.1411C78.8212 126.554 78.5207 126.4 78.3326 126.142C78.1444 125.883 78.0911 125.549 78.19 125.244L79.4702 121.306L79.5318 121.158C79.7008 120.829 80.0424 120.615 80.4214 120.615H113.113ZM73.2124 78.8701C73.4521 78.8233 73.7065 78.8612 73.9263 78.9961C74.3203 79.238 74.4973 79.7186 74.354 80.1582L73.398 83.0918C73.2746 83.4695 72.9391 83.7391 72.5435 83.7773C52.9449 85.6689 32.8184 100.832 24.7359 119.875C24.579 120.244 24.2169 120.484 23.8159 120.484H20.8824C20.5479 120.484 20.2348 120.316 20.0493 120.038C19.8642 119.76 19.8307 119.407 19.9595 119.099C28.8497 97.8426 51.2542 80.8899 73.2124 78.8701ZM80.6626 79.5303C80.815 79.0628 81.2844 78.7754 81.7701 78.8525C81.7922 78.8561 81.8139 78.8613 81.8355 78.8662C92.205 79.8908 100.346 84.683 105.264 91.9707C110.197 99.2814 111.817 108.996 109.33 119.702C109.224 120.155 108.821 120.476 108.356 120.477H105.422C105.119 120.477 104.831 120.338 104.641 120.101C104.451 119.863 104.38 119.552 104.447 119.256C106.58 109.799 105.089 101.397 100.872 95.1475C96.6584 88.9044 89.6561 84.706 80.5542 83.7686C80.2537 83.7376 79.9827 83.5716 79.8179 83.3184C79.6535 83.0652 79.6123 82.7509 79.7056 82.4639L80.6626 79.5303ZM69.2876 91.8184C69.7703 91.8655 70.1566 92.2565 70.188 92.75C70.1989 92.9211 70.1646 93.0853 70.0972 93.2314L69.4605 95.2031C69.3424 95.5689 69.0249 95.8347 68.6441 95.8867C55.7003 97.6457 42.6413 107.483 36.8452 119.898C36.6809 120.25 36.3273 120.475 35.939 120.476H33.857C33.5165 120.476 33.1991 120.302 33.0152 120.016C32.8313 119.729 32.8054 119.369 32.9468 119.06C39.413 104.928 54.22 93.7323 69.0142 91.8281C69.0209 91.827 69.028 91.8262 69.0347 91.8252C69.0441 91.824 69.0537 91.8225 69.063 91.8213V91.8232C69.1019 91.8186 69.1413 91.8135 69.1812 91.8135H69.19L69.2876 91.8184ZM77.5357 91.8232C84.4143 92.7741 89.8434 96.1152 93.1919 101.078C96.5366 106.035 97.7466 112.521 96.3716 119.664C96.281 120.135 95.8693 120.475 95.3902 120.476H93.3072C93.0104 120.476 92.7286 120.343 92.5386 120.115C92.3489 119.887 92.2704 119.587 92.3238 119.295C93.4467 113.159 92.3568 107.74 89.6021 103.658C86.8508 99.5814 82.3815 96.752 76.5708 95.8857C76.2802 95.8424 76.0236 95.6725 75.8687 95.4229C75.7139 95.1732 75.6769 94.8684 75.7671 94.5889L76.439 92.5059L76.5005 92.3574C76.6694 92.0276 77.0117 91.8135 77.3911 91.8135H77.399C77.4446 91.8135 77.4905 91.817 77.5357 91.8232ZM81.3667 73.4082C81.6413 73.441 81.8924 73.587 82.0572 73.8135C82.2453 74.0724 82.2976 74.4066 82.1988 74.7109L71.5747 107.394C71.4408 107.806 71.0567 108.085 70.6236 108.085H66.6773C66.3572 108.085 66.0558 107.931 65.8677 107.672C65.6801 107.413 65.6273 107.079 65.7261 106.775L76.3589 74.0918L76.4204 73.9443C76.5896 73.6152 76.9313 73.4014 77.3101 73.4014H81.2486L81.3667 73.4082Z" fill="#F97A9F"/>
<path d="M109.832 92.2274L137.3 89.6816L110.432 87.1906L132.321 63.2823L108.259 85.3126L105.737 58.1178L103.188 85.6151L92.4208 76.6737L101.143 87.1802L74.1754 89.6816L101.321 92.1987L74.564 121.039L103.251 94.4262L105.737 121.243L108.235 94.3036L118.93 103.182L109.832 92.2274Z" fill="white"/>
<g filter="url(#filter2_f_535_451)">
<path d="M109.832 92.2275L137.3 89.6817L110.432 87.1907L132.321 63.2825L108.259 85.3127L105.737 58.1179L103.188 85.6153L92.4208 76.6738L101.143 87.1803L74.1754 89.6817L101.321 92.1988L74.564 121.039L103.251 94.4263L105.737 121.243L108.235 94.3037L118.93 103.183L109.832 92.2275Z" fill="white"/>
</g>
<path d="M286.516 62.1133C286.535 62.0445 291.462 44.7038 291.666 44.3408C291.871 43.9773 291.801 43.879 292.201 43.417C292.601 42.9549 318.327 43.417 318.327 43.417V50.8105H297.376L286.516 79L271.355 35.1494C271.355 35.1494 267.989 47.8767 267.81 48.0547C267.632 48.2326 267.527 48.3275 267.343 48.5C267.217 48.6094 241.143 48.7625 222.057 48.8623V41.5684H261.838L271.355 18L286.516 62.1133Z" fill="#F97A9F"/>
<g filter="url(#filter3_f_535_451)">
<path d="M286.516 62.1133C286.535 62.0445 291.462 44.7038 291.666 44.3408C291.871 43.9773 291.801 43.879 292.201 43.417C292.601 42.9549 318.327 43.417 318.327 43.417V50.8105H297.376L286.516 79L271.355 35.1494C271.355 35.1494 267.989 47.8767 267.81 48.0547C267.632 48.2326 267.527 48.3275 267.343 48.5C267.217 48.6094 241.143 48.7625 222.057 48.8623V41.5684H261.838L271.355 18L286.516 62.1133Z" fill="#F97A9F"/>
</g>
<defs>
<filter id="filter0_f_535_451" x="4.95593" y="65.8906" width="116.707" height="115.219" filterUnits="userSpaceOnUse" color-interpolation-filters="sRGB">
<feFlood flood-opacity="0" result="BackgroundImageFix"/>
<feBlend mode="normal" in="SourceGraphic" in2="BackgroundImageFix" result="shape"/>
<feGaussianBlur stdDeviation="4" result="effect1_foregroundBlur_535_451"/>
</filter>
<filter id="filter1_f_535_451" x="4.95593" y="65.8906" width="116.707" height="115.219" filterUnits="userSpaceOnUse" color-interpolation-filters="sRGB">
<feFlood flood-opacity="0" result="BackgroundImageFix"/>
<feBlend mode="normal" in="SourceGraphic" in2="BackgroundImageFix" result="shape"/>
<feGaussianBlur stdDeviation="4" result="effect1_foregroundBlur_535_451"/>
</filter>
<filter id="filter2_f_535_451" x="70.1754" y="54.1179" width="71.125" height="71.125" filterUnits="userSpaceOnUse" color-interpolation-filters="sRGB">
<feFlood flood-opacity="0" result="BackgroundImageFix"/>
<feBlend mode="normal" in="SourceGraphic" in2="BackgroundImageFix" result="shape"/>
<feGaussianBlur stdDeviation="2" result="effect1_foregroundBlur_535_451"/>
</filter>
<filter id="filter3_f_535_451" x="218.057" y="14" width="104.27" height="69" filterUnits="userSpaceOnUse" color-interpolation-filters="sRGB">
<feFlood flood-opacity="0" result="BackgroundImageFix"/>
<feBlend mode="normal" in="SourceGraphic" in2="BackgroundImageFix" result="shape"/>
<feGaussianBlur stdDeviation="2" result="effect1_foregroundBlur_535_451"/>
</filter>
<linearGradient id="paint0_linear_535_451" x1="283.557" y1="91" x2="283.557" y2="171" gradientUnits="userSpaceOnUse">
<stop offset="0.4" stop-color="#1C1B1D"/>
<stop offset="1" stop-color="#C7A5B3"/>
</linearGradient>
<linearGradient id="paint1_linear_535_451" x1="209.557" y1="93" x2="209.557" y2="167" gradientUnits="userSpaceOnUse">
<stop offset="0.4" stop-color="#1C1B1D"/>
<stop offset="1" stop-color="#C7A5B3"/>
</linearGradient>
<linearGradient id="paint2_linear_535_451" x1="139.057" y1="93" x2="139.057" y2="172" gradientUnits="userSpaceOnUse">
<stop offset="0.4" stop-color="#1C1B1D"/>
<stop offset="1" stop-color="#C7A5B3"/>
</linearGradient>
<linearGradient id="paint3_linear_535_451" x1="185.557" y1="18" x2="185.557" y2="89" gradientUnits="userSpaceOnUse">
<stop offset="0.4" stop-color="#1C1B1D"/>
<stop offset="1" stop-color="#C7A5B3"/>
</linearGradient>
<linearGradient id="paint4_linear_535_451" x1="118.53" y1="18.1974" x2="118.53" y2="89.1974" gradientUnits="userSpaceOnUse">
<stop offset="0.4" stop-color="#1C1B1D"/>
<stop offset="1" stop-color="#C7A5B3"/>
</linearGradient>
<linearGradient id="paint5_linear_535_451" x1="35.4474" y1="0" x2="35.4474" y2="89.1974" gradientUnits="userSpaceOnUse">
<stop offset="0.4" stop-color="#1C1B1D"/>
<stop offset="1" stop-color="#C7A5B3"/>
</linearGradient>
</defs>
</svg>
