<svg width="256" height="256" viewBox="0 0 256 256" fill="none" xmlns="http://www.w3.org/2000/svg">
<g filter="url(#filter0_f_97_355)">
<path d="M120.79 160.061C121.095 160.097 121.373 160.259 121.555 160.509C121.764 160.796 121.823 161.165 121.713 161.502L100.306 227.235C100.157 227.691 99.7313 228 99.251 228H91.2986C90.9437 228 90.6094 227.83 90.4008 227.544C90.1923 227.257 90.134 226.888 90.2438 226.551L111.667 160.817L111.736 160.654C111.923 160.29 112.302 160.054 112.722 160.053H120.658L120.79 160.061Z" fill="#F97A9F"/>
<path d="M42.6952 135.162C43.2566 135.225 43.6808 135.699 43.6808 136.263V136.279C43.6807 136.39 43.6627 136.497 43.632 136.599C39.3181 155.778 42.3447 172.902 50.9909 185.687C59.6463 198.485 74.0104 207.051 92.5874 208.96C92.9208 208.994 93.2212 209.178 93.4039 209.458C93.5863 209.738 93.6321 210.086 93.5285 210.404L91.6018 216.303C91.4406 216.796 90.9575 217.111 90.4409 217.062C69.6638 215.079 53.4228 205.545 43.6407 191.08C33.8637 176.622 30.6168 157.353 35.5811 136.028L35.6396 135.848C35.8104 135.444 36.2097 135.172 36.6608 135.172H42.3801C42.4817 135.154 42.5881 135.151 42.6952 135.162Z" fill="#F97A9F"/>
<path d="M212.949 135.139C213.398 135.139 213.802 135.409 213.974 135.822C214.107 136.141 214.078 136.497 213.913 136.789C196.084 179.252 151.153 213.099 107.221 217.046C106.85 217.079 106.486 216.924 106.254 216.633C106.022 216.342 105.951 215.954 106.066 215.601L107.994 209.702L108.056 209.551C108.224 209.213 108.558 208.981 108.942 208.944C148.781 205.107 189.61 174.389 206.018 135.813L206.093 135.667C206.292 135.343 206.649 135.139 207.038 135.139H212.949Z" fill="#F97A9F"/>
<path d="M186.807 135.155C187.185 135.155 187.536 135.347 187.74 135.664C187.944 135.981 187.972 136.379 187.815 136.722C174.895 164.898 145.268 187.219 115.752 190.969C115.376 191.017 115 190.869 114.758 190.578C114.516 190.287 114.44 189.891 114.557 189.531L115.912 185.343C116.043 184.938 116.396 184.644 116.818 184.587C143.22 181.006 169.771 161.021 181.589 135.792L181.667 135.654C181.87 135.346 182.218 135.155 182.594 135.155H186.807Z" fill="#F97A9F"/>
<path d="M67.1296 135.16C67.6891 135.217 68.1259 135.688 68.1259 136.262C68.1259 136.39 68.1022 136.512 68.062 136.627C65.8129 149.094 68.0366 160.177 73.7142 168.573C79.4129 176.999 88.654 182.813 100.59 184.589C100.912 184.637 101.196 184.824 101.368 185.1C101.54 185.376 101.581 185.715 101.481 186.024L100.126 190.212C99.9604 190.722 99.4511 191.041 98.9185 190.967C85.2883 189.087 74.5888 182.494 67.9992 172.747C61.4139 163.008 58.9983 150.217 61.7309 136.052L61.7536 135.957C61.8884 135.486 62.322 135.155 62.8204 135.155H67.017L67.1296 135.16Z" fill="#F97A9F"/>
<path d="M115.937 113.266C118.606 111.455 122.048 110.522 125.118 110.99C127.74 111.39 130.077 112.821 131.336 115.505C134.198 112.816 137.349 111.387 140.229 110.988C143.501 110.534 146.561 111.411 148.263 113.48C149.99 115.582 150.035 118.556 149.025 121.649C148.006 124.772 145.848 128.256 142.76 131.688C138.25 136.904 129.503 141.998 122.632 145.354C122.265 145.532 121.829 145.496 121.498 145.258C119.109 143.548 116.542 141.4 114.427 139.017C112.334 136.66 110.608 133.988 110.013 131.215L109.86 130.552C108.403 123.697 110.701 116.818 115.937 113.266Z" fill="#F97A9F"/>
<path d="M95.5439 122.933C95.8988 122.933 96.233 123.103 96.4417 123.389C96.6503 123.676 96.7084 124.045 96.5987 124.382L94.0191 132.301C93.8706 132.757 93.4446 133.066 92.9642 133.066H27.1089C26.7542 133.066 26.4208 132.896 26.2122 132.61C26.0038 132.323 25.9444 131.953 26.0541 131.617L28.6338 123.697L28.702 123.534C28.8894 123.17 29.2685 122.933 29.6886 122.933H95.5439Z" fill="#F97A9F"/>
<path d="M228.023 122.941C228.328 122.977 228.607 123.139 228.789 123.39C228.998 123.677 229.055 124.046 228.945 124.383L226.349 132.303C226.2 132.758 225.775 133.066 225.295 133.066H159.44C159.085 133.066 158.752 132.896 158.543 132.61C158.335 132.323 158.276 131.953 158.385 131.617L160.965 123.697L161.033 123.534C161.221 123.17 161.6 122.933 162.02 122.933H227.891L228.023 122.941Z" fill="#F97A9F"/>
<path d="M147.612 38.9865C147.893 38.9169 148.198 38.9546 148.459 39.1141C148.896 39.3817 149.092 39.9136 148.933 40.4001L147.006 46.2997C146.869 46.7177 146.496 47.015 146.058 47.0573C106.218 50.8947 65.39 81.6117 48.982 120.188C48.808 120.596 48.4055 120.862 47.9607 120.862H42.0498C41.679 120.862 41.3315 120.677 41.126 120.369C40.9208 120.061 40.8838 119.67 41.0264 119.329C58.823 76.8675 103.709 43.0004 147.612 38.9865Z" fill="#F97A9F"/>
<path d="M163.365 39.6987C163.534 39.1815 164.056 38.8636 164.594 38.9487C164.635 38.9551 164.674 38.9651 164.713 38.9757C185.401 40.9985 201.573 50.5156 211.326 64.9377C221.103 79.3958 224.35 98.6645 219.386 119.989C219.269 120.49 218.821 120.846 218.306 120.846H212.395C212.058 120.846 211.739 120.693 211.529 120.43C211.318 120.168 211.239 119.823 211.313 119.495C215.658 100.278 212.636 83.1211 203.976 70.3153C195.32 57.5167 180.957 48.9503 162.379 47.0411C162.046 47.0067 161.745 46.8231 161.563 46.5429C161.38 46.2628 161.335 45.9148 161.438 45.5972L163.365 39.6987Z" fill="#F97A9F"/>
<path d="M139.496 65.0274C140.031 65.0794 140.46 65.5121 140.494 66.0584C140.507 66.2652 140.461 66.4631 140.372 66.6355L139.071 70.6568C138.94 71.0616 138.587 71.356 138.165 71.4133C111.762 74.9939 85.1954 94.9791 73.3936 120.206C73.2113 120.596 72.8192 120.845 72.3886 120.845H68.192C67.8148 120.845 67.4634 120.653 67.2596 120.336C67.0558 120.019 67.027 119.621 67.1837 119.278C80.0934 91.1243 109.684 68.8175 139.175 65.0404C139.192 65.0374 139.209 65.036 139.225 65.0339C139.232 65.033 139.24 65.0316 139.247 65.0306V65.0328C139.288 65.0282 139.329 65.022 139.371 65.022H139.388L139.496 65.0274Z" fill="#F97A9F"/>
<path d="M156.081 65.0328C169.711 66.913 180.41 73.5063 187 83.2525C193.585 92.9926 196.001 105.783 193.268 119.948C193.168 120.469 192.71 120.845 192.179 120.845H187.982C187.654 120.845 187.342 120.699 187.131 120.447C186.921 120.195 186.833 119.862 186.892 119.54C189.191 107.005 186.972 95.8601 181.269 87.4273C175.57 79.0007 166.329 73.1866 154.393 71.4112C154.071 71.3631 153.786 71.176 153.615 70.9C153.443 70.6238 153.402 70.2853 153.502 69.976L154.857 65.7882L154.925 65.6239C155.112 65.2591 155.491 65.0224 155.912 65.022H155.929L156.081 65.0328Z" fill="#F97A9F"/>
<path d="M163.819 28.0076C164.123 28.0441 164.401 28.2056 164.583 28.4561C164.792 28.7425 164.851 29.1124 164.741 29.4492L143.334 95.1652C143.185 95.6209 142.759 95.9301 142.279 95.9304H134.327C133.972 95.9304 133.638 95.761 133.429 95.4743C133.22 95.1876 133.162 94.8181 133.272 94.4811L154.696 28.7641L154.764 28.6009C154.951 28.2366 155.33 28 155.75 28H163.687L163.819 28.0076Z" fill="#F97A9F"/>
</g>
<g filter="url(#filter1_f_97_355)">
<path d="M120.79 160.061C121.095 160.097 121.373 160.259 121.555 160.509C121.764 160.796 121.823 161.165 121.713 161.502L100.306 227.235C100.157 227.691 99.7313 228 99.251 228H91.2986C90.9437 228 90.6094 227.83 90.4008 227.544C90.1923 227.257 90.134 226.888 90.2438 226.551L111.667 160.817L111.736 160.654C111.923 160.29 112.302 160.054 112.722 160.053H120.658L120.79 160.061Z" fill="#F97A9F"/>
<path d="M42.6952 135.162C43.2566 135.225 43.6808 135.699 43.6808 136.263V136.279C43.6807 136.39 43.6627 136.497 43.632 136.599C39.3181 155.778 42.3447 172.902 50.9909 185.687C59.6463 198.485 74.0104 207.051 92.5874 208.96C92.9208 208.994 93.2212 209.178 93.4039 209.458C93.5863 209.738 93.6321 210.086 93.5285 210.404L91.6018 216.303C91.4406 216.796 90.9575 217.111 90.4409 217.062C69.6638 215.079 53.4228 205.545 43.6407 191.08C33.8637 176.622 30.6168 157.353 35.5811 136.028L35.6396 135.848C35.8104 135.444 36.2097 135.172 36.6608 135.172H42.3801C42.4817 135.154 42.5881 135.151 42.6952 135.162Z" fill="#F97A9F"/>
<path d="M212.949 135.139C213.398 135.139 213.802 135.409 213.974 135.822C214.107 136.141 214.078 136.497 213.913 136.789C196.084 179.252 151.153 213.099 107.221 217.046C106.85 217.079 106.486 216.924 106.254 216.633C106.022 216.342 105.951 215.954 106.066 215.601L107.994 209.702L108.056 209.551C108.224 209.213 108.558 208.981 108.942 208.944C148.781 205.107 189.61 174.389 206.018 135.813L206.093 135.667C206.292 135.343 206.649 135.139 207.038 135.139H212.949Z" fill="#F97A9F"/>
<path d="M186.807 135.155C187.185 135.155 187.536 135.347 187.74 135.664C187.944 135.981 187.972 136.379 187.815 136.722C174.895 164.898 145.268 187.219 115.752 190.969C115.376 191.017 115 190.869 114.758 190.578C114.516 190.287 114.44 189.891 114.557 189.531L115.912 185.343C116.043 184.938 116.396 184.644 116.818 184.587C143.22 181.006 169.771 161.021 181.589 135.792L181.667 135.654C181.87 135.346 182.218 135.155 182.594 135.155H186.807Z" fill="#F97A9F"/>
<path d="M67.1296 135.16C67.6891 135.217 68.1259 135.688 68.1259 136.262C68.1259 136.39 68.1022 136.512 68.062 136.627C65.8129 149.094 68.0366 160.177 73.7142 168.573C79.4129 176.999 88.654 182.813 100.59 184.589C100.912 184.637 101.196 184.824 101.368 185.1C101.54 185.376 101.581 185.715 101.481 186.024L100.126 190.212C99.9604 190.722 99.4511 191.041 98.9185 190.967C85.2883 189.087 74.5888 182.494 67.9992 172.747C61.4139 163.008 58.9983 150.217 61.7309 136.052L61.7536 135.957C61.8884 135.486 62.322 135.155 62.8204 135.155H67.017L67.1296 135.16Z" fill="#F97A9F"/>
<path d="M115.937 113.266C118.606 111.455 122.048 110.522 125.118 110.99C127.74 111.39 130.077 112.821 131.336 115.505C134.198 112.816 137.349 111.387 140.229 110.988C143.501 110.534 146.561 111.411 148.263 113.48C149.99 115.582 150.035 118.556 149.025 121.649C148.006 124.772 145.848 128.256 142.76 131.688C138.25 136.904 129.503 141.998 122.632 145.354C122.265 145.532 121.829 145.496 121.498 145.258C119.109 143.548 116.542 141.4 114.427 139.017C112.334 136.66 110.608 133.988 110.013 131.215L109.86 130.552C108.403 123.697 110.701 116.818 115.937 113.266Z" fill="#F97A9F"/>
<path d="M95.5439 122.933C95.8988 122.933 96.233 123.103 96.4417 123.389C96.6503 123.676 96.7084 124.045 96.5987 124.382L94.0191 132.301C93.8706 132.757 93.4446 133.066 92.9642 133.066H27.1089C26.7542 133.066 26.4208 132.896 26.2122 132.61C26.0038 132.323 25.9444 131.953 26.0541 131.617L28.6338 123.697L28.702 123.534C28.8894 123.17 29.2685 122.933 29.6886 122.933H95.5439Z" fill="#F97A9F"/>
<path d="M228.023 122.941C228.328 122.977 228.607 123.139 228.789 123.39C228.998 123.677 229.055 124.046 228.945 124.383L226.349 132.303C226.2 132.758 225.775 133.066 225.295 133.066H159.44C159.085 133.066 158.752 132.896 158.543 132.61C158.335 132.323 158.276 131.953 158.385 131.617L160.965 123.697L161.033 123.534C161.221 123.17 161.6 122.933 162.02 122.933H227.891L228.023 122.941Z" fill="#F97A9F"/>
<path d="M147.612 38.9865C147.893 38.9169 148.198 38.9546 148.459 39.1141C148.896 39.3817 149.092 39.9136 148.933 40.4001L147.006 46.2997C146.869 46.7177 146.496 47.015 146.058 47.0573C106.218 50.8947 65.39 81.6117 48.982 120.188C48.808 120.596 48.4055 120.862 47.9607 120.862H42.0498C41.679 120.862 41.3315 120.677 41.126 120.369C40.9208 120.061 40.8838 119.67 41.0264 119.329C58.823 76.8675 103.709 43.0004 147.612 38.9865Z" fill="#F97A9F"/>
<path d="M163.365 39.6987C163.534 39.1815 164.056 38.8636 164.594 38.9487C164.635 38.9551 164.674 38.9651 164.713 38.9757C185.401 40.9985 201.573 50.5156 211.326 64.9377C221.103 79.3958 224.35 98.6645 219.386 119.989C219.269 120.49 218.821 120.846 218.306 120.846H212.395C212.058 120.846 211.739 120.693 211.529 120.43C211.318 120.168 211.239 119.823 211.313 119.495C215.658 100.278 212.636 83.1211 203.976 70.3153C195.32 57.5167 180.957 48.9503 162.379 47.0411C162.046 47.0067 161.745 46.8231 161.563 46.5429C161.38 46.2628 161.335 45.9148 161.438 45.5972L163.365 39.6987Z" fill="#F97A9F"/>
<path d="M139.496 65.0274C140.031 65.0794 140.46 65.5121 140.494 66.0584C140.507 66.2652 140.461 66.4631 140.372 66.6355L139.071 70.6568C138.94 71.0616 138.587 71.356 138.165 71.4133C111.762 74.9939 85.1954 94.9791 73.3936 120.206C73.2113 120.596 72.8192 120.845 72.3886 120.845H68.192C67.8148 120.845 67.4634 120.653 67.2596 120.336C67.0558 120.019 67.027 119.621 67.1837 119.278C80.0934 91.1243 109.684 68.8175 139.175 65.0404C139.192 65.0374 139.209 65.036 139.225 65.0339C139.232 65.033 139.24 65.0316 139.247 65.0306V65.0328C139.288 65.0282 139.329 65.022 139.371 65.022H139.388L139.496 65.0274Z" fill="#F97A9F"/>
<path d="M156.081 65.0328C169.711 66.913 180.41 73.5063 187 83.2525C193.585 92.9926 196.001 105.783 193.268 119.948C193.168 120.469 192.71 120.845 192.179 120.845H187.982C187.654 120.845 187.342 120.699 187.131 120.447C186.921 120.195 186.833 119.862 186.892 119.54C189.191 107.005 186.972 95.8601 181.269 87.4273C175.57 79.0007 166.329 73.1866 154.393 71.4112C154.071 71.3631 153.786 71.176 153.615 70.9C153.443 70.6238 153.402 70.2853 153.502 69.976L154.857 65.7882L154.925 65.6239C155.112 65.2591 155.491 65.0224 155.912 65.022H155.929L156.081 65.0328Z" fill="#F97A9F"/>
<path d="M163.819 28.0076C164.123 28.0441 164.401 28.2056 164.583 28.4561C164.792 28.7425 164.851 29.1124 164.741 29.4492L143.334 95.1652C143.185 95.6209 142.759 95.9301 142.279 95.9304H134.327C133.972 95.9304 133.638 95.761 133.429 95.4743C133.22 95.1876 133.162 94.8181 133.272 94.4811L154.696 28.7641L154.764 28.6009C154.951 28.2366 155.33 28 155.75 28H163.687L163.819 28.0076Z" fill="#F97A9F"/>
</g>
<path d="M120.616 160.413C120.936 160.413 121.238 160.566 121.426 160.825C121.614 161.084 121.666 161.417 121.567 161.722L100.151 227.619C100.017 228.031 99.6333 228.31 99.2002 228.311H91.2451C90.925 228.311 90.6237 228.157 90.4355 227.898C90.2474 227.639 90.1949 227.305 90.2939 227.001L111.727 161.104L111.788 160.956C111.957 160.627 112.299 160.413 112.678 160.413H120.616ZM42.6104 135.458C43.1164 135.515 43.4999 135.943 43.5 136.452V136.469C43.5 136.572 43.4842 136.672 43.4551 136.766C39.1337 156.018 42.1618 173.215 50.8311 186.062C59.5099 198.921 73.9103 207.523 92.5234 209.44C92.824 209.471 93.0951 209.637 93.2598 209.891C93.4243 210.144 93.4654 210.458 93.3721 210.745L91.4443 216.659C91.2992 217.104 90.8644 217.389 90.3984 217.345C69.6418 215.359 53.426 205.817 43.6602 191.346C33.8989 176.881 30.6515 157.596 35.6123 136.242C35.7176 135.789 36.1219 135.469 36.5869 135.469H42.3184C42.4125 135.451 42.5109 135.447 42.6104 135.458ZM212.944 135.436C213.348 135.436 213.713 135.679 213.868 136.053C213.989 136.343 213.962 136.667 213.811 136.932C195.991 179.469 151.073 213.376 107.164 217.329C106.829 217.359 106.501 217.219 106.292 216.956C106.083 216.693 106.019 216.342 106.123 216.022L108.051 210.109L108.106 209.973C108.259 209.668 108.559 209.457 108.905 209.424C148.803 205.573 189.681 174.753 206.11 136.045C206.267 135.676 206.63 135.436 207.031 135.436H212.944ZM186.791 135.452C187.131 135.452 187.448 135.626 187.632 135.912C187.816 136.198 187.842 136.559 187.7 136.868C174.79 165.083 145.182 187.434 115.694 191.188C115.355 191.232 115.017 191.098 114.799 190.835C114.58 190.572 114.511 190.214 114.616 189.889L115.973 185.69L116.025 185.559C116.17 185.262 116.456 185.052 116.789 185.007C143.24 181.412 169.832 161.352 181.67 136.029L181.74 135.903C181.923 135.625 182.236 135.452 182.576 135.452H186.791ZM67.0557 135.458C67.5599 135.509 67.9539 135.934 67.9541 136.452C67.954 136.571 67.9309 136.686 67.8926 136.792C65.6361 149.317 67.8643 160.46 73.5635 168.905C79.2833 177.381 88.5558 183.225 100.523 185.009C100.814 185.052 101.071 185.221 101.226 185.471C101.38 185.72 101.418 186.026 101.328 186.306L99.9717 190.504C99.8223 190.965 99.3639 191.253 98.8838 191.187C85.2758 189.306 74.6007 182.71 68.0273 172.968C61.4582 163.231 59.0445 150.44 61.7734 136.264L61.7939 136.177C61.9156 135.751 62.3064 135.452 62.7559 135.452H66.9541L67.0557 135.458ZM115.954 113.49C118.605 111.688 122.021 110.76 125.062 111.225C127.696 111.627 130.037 113.084 131.263 115.829C134.141 113.08 137.316 111.626 140.21 111.224C143.459 110.772 146.477 111.647 148.147 113.683C149.841 115.748 149.895 118.685 148.891 121.77C147.877 124.881 145.728 128.361 142.646 131.794C138.151 137.005 129.417 142.105 122.543 145.469C122.212 145.631 121.819 145.597 121.52 145.383C119.135 143.671 116.574 141.523 114.465 139.143C112.376 136.785 110.662 134.122 110.073 131.366C108.327 124.313 110.593 117.135 115.954 113.49ZM95.4922 123.2C95.8122 123.2 96.1136 123.353 96.3018 123.612C96.4898 123.871 96.5422 124.205 96.4434 124.51L93.8623 132.448C93.7284 132.86 93.3442 133.14 92.9111 133.14H27.0303C26.7101 133.14 26.4098 132.986 26.2217 132.727C26.0336 132.468 25.9802 132.134 26.0791 131.83L28.6602 123.891L28.7217 123.743C28.8908 123.414 29.2323 123.2 29.6113 123.2H95.4922ZM227.892 123.2C228.212 123.2 228.513 123.354 228.701 123.613C228.889 123.873 228.941 124.206 228.842 124.511L226.244 132.45C226.11 132.861 225.726 133.14 225.294 133.14H159.413C159.093 133.14 158.793 132.986 158.604 132.727C158.416 132.468 158.363 132.134 158.462 131.83L161.043 123.891L161.104 123.743C161.274 123.414 161.615 123.2 161.994 123.2H227.892ZM147.59 39.043C147.848 38.9743 148.13 39.0081 148.37 39.1553C148.764 39.3972 148.941 39.8778 148.798 40.3174L146.871 46.2305C146.748 46.6085 146.411 46.8777 146.016 46.916C106.118 50.7667 65.2409 81.5875 48.8115 120.295C48.6548 120.664 48.2918 120.904 47.8906 120.904H41.9775C41.6431 120.904 41.33 120.737 41.1445 120.459C40.9591 120.18 40.9256 119.827 41.0547 119.519C58.8436 76.9865 103.713 43.0631 147.59 39.043ZM139.353 65.1445C139.88 65.1445 140.317 65.5545 140.351 66.0811C140.362 66.2703 140.32 66.4513 140.237 66.6084L138.932 70.6504C138.813 71.0159 138.496 71.2822 138.115 71.334C111.663 74.9286 85.0558 94.9891 73.2344 120.312C73.0699 120.663 72.7164 120.889 72.3281 120.889H68.1299C67.7896 120.889 67.4721 120.715 67.2881 120.429C67.1043 120.142 67.0794 119.782 67.2207 119.473C80.1208 91.2804 109.692 68.9428 139.156 65.1621C139.174 65.1588 139.193 65.1576 139.211 65.1553C139.216 65.1546 139.221 65.153 139.227 65.1523V65.1533C139.263 65.1493 139.299 65.1445 139.336 65.1445H139.353ZM156.037 65.1543C169.645 67.0353 180.319 73.6298 186.893 83.3721C193.462 93.1088 195.877 105.9 193.147 120.077C193.057 120.548 192.644 120.889 192.165 120.889H187.967C187.67 120.889 187.389 120.756 187.199 120.528C187.009 120.301 186.93 120 186.983 119.708C189.288 107.118 187.064 95.9164 181.341 87.4355C175.621 78.9601 166.349 73.116 154.381 71.332C154.09 71.2887 153.834 71.1195 153.679 70.8701C153.524 70.6206 153.486 70.3146 153.576 70.0352L154.933 65.8369L154.994 65.6885C155.163 65.3587 155.504 65.1447 155.884 65.1445H155.9C155.946 65.1445 155.992 65.148 156.037 65.1543ZM163.444 39.6816C163.597 39.2144 164.066 38.927 164.552 39.0039C164.59 39.01 164.628 39.02 164.665 39.0303C185.338 41.0525 201.491 50.5796 211.229 65.0107C220.991 79.4757 224.237 98.7607 219.276 120.114C219.171 120.567 218.768 120.887 218.303 120.888H212.389C212.085 120.888 211.798 120.75 211.608 120.513C211.419 120.275 211.346 119.964 211.413 119.668C215.765 100.378 212.741 83.1461 204.058 70.2793C195.379 57.4192 180.979 48.8164 162.365 46.8994C162.065 46.8684 161.794 46.7035 161.629 46.4502C161.464 46.1968 161.423 45.8821 161.517 45.5947L163.444 39.6816ZM163.66 28.0303C163.98 28.0303 164.282 28.1834 164.47 28.4424C164.658 28.7014 164.71 29.0354 164.611 29.3398L143.195 95.2207C143.061 95.6325 142.677 95.9111 142.244 95.9111H134.289C133.969 95.9111 133.668 95.7581 133.479 95.499C133.291 95.24 133.239 94.906 133.338 94.6016L154.771 28.7207L154.832 28.5732C155.001 28.2439 155.343 28.0303 155.722 28.0303H163.66Z" fill="#F97A9F"/>
<defs>
<filter id="filter0_f_97_355" x="18" y="20" width="219" height="216" filterUnits="userSpaceOnUse" color-interpolation-filters="sRGB">
<feFlood flood-opacity="0" result="BackgroundImageFix"/>
<feBlend mode="normal" in="SourceGraphic" in2="BackgroundImageFix" result="shape"/>
<feGaussianBlur stdDeviation="4" result="effect1_foregroundBlur_97_355"/>
</filter>
<filter id="filter1_f_97_355" x="18" y="20" width="219" height="216" filterUnits="userSpaceOnUse" color-interpolation-filters="sRGB">
<feFlood flood-opacity="0" result="BackgroundImageFix"/>
<feBlend mode="normal" in="SourceGraphic" in2="BackgroundImageFix" result="shape"/>
<feGaussianBlur stdDeviation="4" result="effect1_foregroundBlur_97_355"/>
</filter>
</defs>
</svg>
